<?xml version='1.0' encoding='UTF-8' standalone='no'?>
<!-- Created with Fritzing (http://www.fritzing.org/) -->
<svg xmlns="http://www.w3.org/2000/svg" viewBox="0 0 120.05 79.9112" version="1.2" width="1.66737in" height="1.10988in" y="0in" x="0in" xmlns:svg="http://www.w3.org/2000/svg" baseProfile="tiny" >
 <g transform="matrix(-1, 0, 0, 1, 120.05, 0)">
  <g partID="57470">
   <g id="board" >
    <rect fill-opacity="0.5" stroke-width="0.5" fill="none" width="119.474" height="79.3352" id="boardoutline" stroke="black" y="0.288" x="0.288" />
   </g>
  </g>
  <g partID="854136110">
   <g transform="translate(2.88,2.88)">
    <g id="groundplane" >
     <polygon points="0,0,0,10.656,91.728,10.656,91.728,10.8,92.016,10.8,92.016,10.944,92.16,10.944,92.16,11.088,92.304,11.088,92.304,11.232,92.448,11.232,92.448,11.376,92.592,11.376,92.592,11.808,92.736,11.808,92.736,23.04,106.272,23.04,106.272,23.184,106.848,23.184,106.848,23.328,107.136,23.328,107.136,23.472,107.424,23.472,107.424,23.616,107.568,23.616,107.568,23.76,107.712,23.76,107.712,23.904,108,23.904,108,24.048,108.144,24.048,108.144,24.336,108.288,24.336,108.288,24.48,108.432,24.48,108.432,24.624,108.576,24.624,108.576,24.912,108.72,24.912,108.72,25.2,108.864,25.2,108.864,25.776,109.008,25.776,109.008,27.36,108.864,27.36,108.864,27.792,108.72,27.792,108.72,28.08,108.576,28.08,108.576,28.368,108.432,28.368,108.432,28.656,108.288,28.656,108.288,28.8,108.144,28.8,108.144,28.944,108,28.944,108,29.088,107.856,29.088,107.856,29.232,107.712,29.232,107.712,29.376,107.424,29.376,107.424,29.52,107.28,29.52,107.28,29.664,107.136,29.664,107.136,41.472,106.992,41.472,106.992,41.76,106.848,41.76,106.848,41.904,106.704,41.904,106.704,42.048,106.56,42.048,106.56,42.192,106.416,42.192,106.416,42.336,105.984,42.336,105.984,42.48,50.976,42.48,50.976,42.768,50.832,42.768,50.832,43.056,50.688,43.056,50.688,43.2,50.544,43.2,50.544,43.344,50.4,43.344,50.4,43.488,50.256,43.488,50.256,43.632,50.112,43.632,50.112,43.776,49.824,43.776,49.824,43.92,49.68,43.92,49.68,44.064,49.392,44.064,49.392,44.208,48.96,44.208,48.96,44.352,48.384,44.352,48.384,44.496,114.192,44.496,114.192,0" stroke-width="0" fill="black" stroke="none" />
     <polygon points="0,10.656,0,17.568,5.472,17.568,5.472,17.712,5.904,17.712,5.904,17.856,6.192,17.856,6.192,18,6.48,18,6.48,18.144,6.768,18.144,6.768,18.288,6.912,18.288,6.912,18.432,7.056,18.432,7.056,18.576,7.2,18.576,7.2,18.72,7.344,18.72,7.344,18.864,7.488,18.864,7.488,19.152,7.632,19.152,7.632,19.296,7.776,19.296,7.776,19.584,7.92,19.584,7.92,20.016,8.064,20.016,8.064,21.888,7.92,21.888,7.92,22.32,7.776,22.32,7.776,22.608,7.632,22.608,7.632,22.896,7.488,22.896,7.488,23.04,7.344,23.04,7.344,23.184,7.2,23.184,7.2,23.328,7.056,23.328,7.056,23.472,6.912,23.472,6.912,23.616,6.768,23.616,6.768,23.76,6.624,23.76,6.624,23.904,6.336,23.904,6.336,24.048,6.048,24.048,6.048,24.192,5.616,24.192,5.616,24.336,22.32,24.336,22.32,24.192,21.744,24.192,21.744,24.048,21.6,24.048,21.6,23.904,21.312,23.904,21.312,23.76,21.024,23.76,21.024,23.616,20.88,23.616,20.88,23.472,20.736,23.472,20.736,23.328,20.592,23.328,20.592,23.184,20.448,23.184,20.448,22.896,20.304,22.896,20.304,22.752,20.16,22.752,20.16,22.464,20.016,22.464,20.016,22.176,19.872,22.176,19.872,21.744,19.728,21.744,19.728,20.304,19.872,20.304,19.872,19.728,20.016,19.728,20.016,19.44,20.16,19.44,20.16,19.152,20.304,19.152,20.304,19.008,20.448,19.008,20.448,18.864,20.592,18.864,20.592,18.576,20.736,18.576,20.736,18.432,21.024,18.432,21.024,18.288,21.168,18.288,21.168,18.144,21.312,18.144,21.312,18,21.6,18,21.6,17.856,21.888,17.856,21.888,17.712,22.464,17.712,22.464,17.568,22.752,17.568,22.752,17.136,22.896,17.136,22.896,16.848,23.04,16.848,23.04,16.416,23.184,16.416,23.184,15.984,23.328,15.984,23.328,15.552,23.472,15.552,23.472,15.264,23.616,15.264,23.616,14.832,23.76,14.832,23.76,14.4,23.904,14.4,23.904,13.968,24.048,13.968,24.048,13.68,24.192,13.68,24.192,13.248,24.336,13.248,24.336,12.816,24.48,12.816,24.48,12.384,24.624,12.384,24.624,11.952,24.768,11.952,24.768,11.664,24.912,11.664,24.912,11.376,25.056,11.376,25.056,11.088,25.2,11.088,25.2,10.944,25.488,10.944,25.488,10.8,25.776,10.8,25.776,10.656" stroke-width="0" fill="black" stroke="none" />
     <polygon points="27.36,13.824,27.36,14.112,27.216,14.112,27.216,14.544,27.072,14.544,27.072,14.976,26.928,14.976,26.928,15.408,26.784,15.408,26.784,15.696,26.64,15.696,26.64,16.128,26.496,16.128,26.496,16.56,26.352,16.56,26.352,16.992,26.208,16.992,26.208,17.28,26.064,17.28,26.064,17.568,52.704,17.568,52.704,17.712,53.136,17.712,53.136,17.856,53.424,17.856,53.424,18,53.712,18,53.712,18.144,54,18.144,54,18.288,54.144,18.288,54.144,18.432,54.288,18.432,54.288,18.576,54.432,18.576,54.432,18.72,54.576,18.72,54.576,18.864,54.72,18.864,54.72,19.152,54.864,19.152,54.864,19.296,55.008,19.296,55.008,19.584,55.152,19.584,55.152,20.16,55.296,20.16,55.296,21.888,55.152,21.888,55.152,22.32,55.008,22.32,55.008,22.608,54.864,22.608,54.864,22.896,54.72,22.896,54.72,23.04,84.672,23.04,84.672,23.184,85.248,23.184,85.248,23.328,85.536,23.328,85.536,23.472,85.824,23.472,85.824,23.616,85.968,23.616,85.968,23.76,86.112,23.76,86.112,23.904,86.4,23.904,86.4,24.048,86.544,24.048,86.544,24.336,86.688,24.336,86.688,24.48,86.832,24.48,86.832,24.624,88.272,24.624,88.272,24.336,88.416,24.336,88.416,24.192,88.56,24.192,88.56,24.048,88.704,24.048,88.704,23.904,88.848,23.904,88.848,23.76,88.992,23.76,88.992,23.616,89.28,23.616,89.28,23.472,89.568,23.472,89.568,13.824" stroke-width="0" fill="black" stroke="none" />
     <polygon points="0,17.568,0,20.304,1.44,20.304,1.44,19.872,1.584,19.872,1.584,19.44,1.728,19.44,1.728,19.152,1.872,19.152,1.872,19.008,2.016,19.008,2.016,18.864,2.16,18.864,2.16,18.576,2.304,18.576,2.304,18.432,2.592,18.432,2.592,18.288,2.736,18.288,2.736,18.144,2.88,18.144,2.88,18,3.168,18,3.168,17.856,3.456,17.856,3.456,17.712,4.032,17.712,4.032,17.568" stroke-width="0" fill="black" stroke="none" />
     <polygon points="26.064,17.568,26.064,17.712,25.92,17.712,25.92,19.152,26.064,19.152,26.064,19.296,26.208,19.296,26.208,19.584,26.352,19.584,26.352,20.16,26.496,20.16,26.496,21.888,26.352,21.888,26.352,22.32,26.208,22.32,26.208,22.608,26.064,22.608,26.064,22.896,25.92,22.896,25.92,23.04,25.776,23.04,25.776,23.184,25.632,23.184,25.632,23.328,25.488,23.328,25.488,23.472,25.344,23.472,25.344,23.616,25.2,23.616,25.2,23.76,25.056,23.76,25.056,23.904,24.768,23.904,24.768,24.048,24.48,24.048,24.48,24.192,24.048,24.192,24.048,24.336,32.688,24.336,32.688,24.192,32.256,24.192,32.256,24.048,31.968,24.048,31.968,23.904,31.68,23.904,31.68,23.76,31.392,23.76,31.392,23.616,31.248,23.616,31.248,23.472,31.104,23.472,31.104,23.328,30.96,23.328,30.96,23.184,30.816,23.184,30.816,22.896,30.672,22.896,30.672,22.752,30.528,22.752,30.528,22.464,30.384,22.464,30.384,22.176,30.24,22.176,30.24,21.6,30.096,21.6,30.096,20.304,30.24,20.304,30.24,19.872,30.384,19.872,30.384,19.44,30.528,19.44,30.528,19.152,30.672,19.152,30.672,19.008,30.816,19.008,30.816,18.864,30.96,18.864,30.96,18.576,31.104,18.576,31.104,18.432,31.392,18.432,31.392,18.288,31.536,18.288,31.536,18.144,31.68,18.144,31.68,18,31.968,18,31.968,17.856,32.256,17.856,32.256,17.712,32.832,17.712,32.832,17.568" stroke-width="0" fill="black" stroke="none" />
     <polygon points="34.272,17.568,34.272,17.712,34.704,17.712,34.704,17.856,34.992,17.856,34.992,18,35.28,18,35.28,18.144,35.568,18.144,35.568,18.288,35.712,18.288,35.712,18.432,35.856,18.432,35.856,18.576,36,18.576,36,18.72,36.144,18.72,36.144,18.864,36.288,18.864,36.288,19.152,36.432,19.152,36.432,19.296,36.576,19.296,36.576,19.584,36.72,19.584,36.72,20.016,36.864,20.016,36.864,21.888,36.72,21.888,36.72,22.32,36.576,22.32,36.576,22.608,36.432,22.608,36.432,22.896,36.288,22.896,36.288,23.04,36.144,23.04,36.144,23.184,36,23.184,36,23.328,35.856,23.328,35.856,23.472,35.712,23.472,35.712,23.616,35.568,23.616,35.568,23.76,35.424,23.76,35.424,23.904,35.136,23.904,35.136,24.048,34.848,24.048,34.848,24.192,34.416,24.192,34.416,24.336,51.12,24.336,51.12,24.192,50.544,24.192,50.544,24.048,50.4,24.048,50.4,23.904,50.112,23.904,50.112,23.76,49.824,23.76,49.824,23.616,49.68,23.616,49.68,23.472,49.536,23.472,49.536,23.328,49.392,23.328,49.392,23.184,49.248,23.184,49.248,22.896,49.104,22.896,49.104,22.752,48.96,22.752,48.96,22.464,48.816,22.464,48.816,22.176,48.672,22.176,48.672,21.744,48.528,21.744,48.528,20.304,48.672,20.304,48.672,19.728,48.816,19.728,48.816,19.44,48.96,19.44,48.96,19.152,49.104,19.152,49.104,19.008,49.248,19.008,49.248,18.864,49.392,18.864,49.392,18.576,49.536,18.576,49.536,18.432,49.824,18.432,49.824,18.288,49.968,18.288,49.968,18.144,50.112,18.144,50.112,18,50.4,18,50.4,17.856,50.688,17.856,50.688,17.712,51.264,17.712,51.264,17.568" stroke-width="0" fill="black" stroke="none" />
     <polygon points="0,21.6,0,24.336,3.888,24.336,3.888,24.192,3.456,24.192,3.456,24.048,3.168,24.048,3.168,23.904,2.88,23.904,2.88,23.76,2.592,23.76,2.592,23.616,2.448,23.616,2.448,23.472,2.304,23.472,2.304,23.328,2.16,23.328,2.16,23.184,2.016,23.184,2.016,22.896,1.872,22.896,1.872,22.752,1.728,22.752,1.728,22.464,1.584,22.464,1.584,22.176,1.44,22.176,1.44,21.6" stroke-width="0" fill="black" stroke="none" />
     <polygon points="54.576,23.04,54.576,23.184,54.432,23.184,54.432,23.328,54.288,23.328,54.288,23.472,54.144,23.472,54.144,23.616,54,23.616,54,23.76,53.856,23.76,53.856,23.904,53.568,23.904,53.568,24.048,53.28,24.048,53.28,24.192,52.848,24.192,52.848,24.336,59.616,24.336,59.616,24.192,59.76,24.192,59.76,24.048,59.904,24.048,59.904,23.904,60.048,23.904,60.048,23.76,60.192,23.76,60.192,23.616,60.48,23.616,60.48,23.472,60.768,23.472,60.768,23.328,61.056,23.328,61.056,23.184,61.488,23.184,61.488,23.04" stroke-width="0" fill="black" stroke="none" />
     <polygon points="63.072,23.04,63.072,23.184,63.648,23.184,63.648,23.328,63.936,23.328,63.936,23.472,64.224,23.472,64.224,23.616,64.368,23.616,64.368,23.76,64.512,23.76,64.512,23.904,64.8,23.904,64.8,24.048,64.944,24.048,64.944,24.336,65.088,24.336,65.088,24.48,65.232,24.48,65.232,24.624,66.672,24.624,66.672,24.336,66.816,24.336,66.816,24.192,66.96,24.192,66.96,24.048,67.104,24.048,67.104,23.904,67.248,23.904,67.248,23.76,67.392,23.76,67.392,23.616,67.68,23.616,67.68,23.472,67.968,23.472,67.968,23.328,68.256,23.328,68.256,23.184,68.688,23.184,68.688,23.04" stroke-width="0" fill="black" stroke="none" />
     <polygon points="70.272,23.04,70.272,23.184,70.848,23.184,70.848,23.328,71.136,23.328,71.136,23.472,71.424,23.472,71.424,23.616,71.568,23.616,71.568,23.76,71.712,23.76,71.712,23.904,72,23.904,72,24.048,72.144,24.048,72.144,24.336,72.288,24.336,72.288,24.48,72.432,24.48,72.432,24.624,73.872,24.624,73.872,24.336,74.016,24.336,74.016,24.192,74.16,24.192,74.16,24.048,74.304,24.048,74.304,23.904,74.448,23.904,74.448,23.76,74.592,23.76,74.592,23.616,74.88,23.616,74.88,23.472,75.168,23.472,75.168,23.328,75.456,23.328,75.456,23.184,75.888,23.184,75.888,23.04" stroke-width="0" fill="black" stroke="none" />
     <polygon points="77.472,23.04,77.472,23.184,78.048,23.184,78.048,23.328,78.336,23.328,78.336,23.472,78.624,23.472,78.624,23.616,78.768,23.616,78.768,23.76,78.912,23.76,78.912,23.904,79.2,23.904,79.2,24.048,79.344,24.048,79.344,24.336,79.488,24.336,79.488,24.48,79.632,24.48,79.632,24.624,81.072,24.624,81.072,24.336,81.216,24.336,81.216,24.192,81.36,24.192,81.36,24.048,81.504,24.048,81.504,23.904,81.648,23.904,81.648,23.76,81.792,23.76,81.792,23.616,82.08,23.616,82.08,23.472,82.368,23.472,82.368,23.328,82.656,23.328,82.656,23.184,83.088,23.184,83.088,23.04" stroke-width="0" fill="black" stroke="none" />
     <polygon points="92.736,23.04,92.736,23.472,93.024,23.472,93.024,23.616,93.168,23.616,93.168,23.76,93.312,23.76,93.312,23.904,93.6,23.904,93.6,24.048,93.744,24.048,93.744,24.336,93.888,24.336,93.888,24.48,94.032,24.48,94.032,24.624,95.472,24.624,95.472,24.336,95.616,24.336,95.616,24.192,95.76,24.192,95.76,24.048,95.904,24.048,95.904,23.904,96.048,23.904,96.048,23.76,96.192,23.76,96.192,23.616,96.48,23.616,96.48,23.472,96.768,23.472,96.768,23.328,97.056,23.328,97.056,23.184,97.488,23.184,97.488,23.04" stroke-width="0" fill="black" stroke="none" />
     <polygon points="99.072,23.04,99.072,23.184,99.648,23.184,99.648,23.328,99.936,23.328,99.936,23.472,100.224,23.472,100.224,23.616,100.368,23.616,100.368,23.76,100.512,23.76,100.512,23.904,100.8,23.904,100.8,24.048,100.944,24.048,100.944,24.336,101.088,24.336,101.088,24.48,101.232,24.48,101.232,24.624,102.672,24.624,102.672,24.336,102.816,24.336,102.816,24.192,102.96,24.192,102.96,24.048,103.104,24.048,103.104,23.904,103.248,23.904,103.248,23.76,103.392,23.76,103.392,23.616,103.68,23.616,103.68,23.472,103.968,23.472,103.968,23.328,104.256,23.328,104.256,23.184,104.688,23.184,104.688,23.04" stroke-width="0" fill="black" stroke="none" />
     <polygon points="0,24.336,0,24.48,59.472,24.48,59.472,24.336" stroke-width="0" fill="black" stroke="none" />
     <polygon points="0,24.336,0,24.48,59.472,24.48,59.472,24.336" stroke-width="0" fill="black" stroke="none" />
     <polygon points="0,24.336,0,24.48,59.472,24.48,59.472,24.336" stroke-width="0" fill="black" stroke="none" />
     <polygon points="0,24.336,0,24.48,59.472,24.48,59.472,24.336" stroke-width="0" fill="black" stroke="none" />
     <polygon points="0,24.336,0,24.48,59.472,24.48,59.472,24.336" stroke-width="0" fill="black" stroke="none" />
     <polygon points="0,24.48,0,30.096,61.92,30.096,61.92,29.952,61.344,29.952,61.344,29.808,60.912,29.808,60.912,29.664,60.624,29.664,60.624,29.52,60.336,29.52,60.336,29.376,60.192,29.376,60.192,29.232,60.048,29.232,60.048,29.088,59.76,29.088,59.76,28.8,59.616,28.8,59.616,28.656,59.472,28.656,59.472,28.512,59.328,28.512,59.328,28.224,59.184,28.224,59.184,27.936,59.04,27.936,59.04,27.648,58.896,27.648,58.896,26.928,58.752,26.928,58.752,26.064,58.896,26.064,58.896,25.488,59.04,25.488,59.04,25.056,59.184,25.056,59.184,24.768,59.328,24.768,59.328,24.624,59.472,24.624,59.472,24.48" stroke-width="0" fill="black" stroke="none" />
     <polygon points="65.232,28.512,65.232,28.656,65.088,28.656,65.088,28.8,64.944,28.8,64.944,28.944,64.8,28.944,64.8,29.088,64.656,29.088,64.656,29.232,64.512,29.232,64.512,29.376,64.224,29.376,64.224,29.52,64.08,29.52,64.08,29.664,63.792,29.664,63.792,29.808,63.36,29.808,63.36,29.952,62.784,29.952,62.784,30.096,69.12,30.096,69.12,29.952,68.544,29.952,68.544,29.808,68.112,29.808,68.112,29.664,67.824,29.664,67.824,29.52,67.536,29.52,67.536,29.376,67.392,29.376,67.392,29.232,67.248,29.232,67.248,29.088,66.96,29.088,66.96,28.8,66.816,28.8,66.816,28.656,66.672,28.656,66.672,28.512" stroke-width="0" fill="black" stroke="none" />
     <polygon points="72.432,28.512,72.432,28.656,72.288,28.656,72.288,28.8,72.144,28.8,72.144,28.944,72,28.944,72,29.088,71.856,29.088,71.856,29.232,71.712,29.232,71.712,29.376,71.424,29.376,71.424,29.52,71.28,29.52,71.28,29.664,70.992,29.664,70.992,29.808,70.56,29.808,70.56,29.952,69.984,29.952,69.984,30.096,76.32,30.096,76.32,29.952,75.744,29.952,75.744,29.808,75.312,29.808,75.312,29.664,75.024,29.664,75.024,29.52,74.736,29.52,74.736,29.376,74.592,29.376,74.592,29.232,74.448,29.232,74.448,29.088,74.16,29.088,74.16,28.8,74.016,28.8,74.016,28.656,73.872,28.656,73.872,28.512" stroke-width="0" fill="black" stroke="none" />
     <polygon points="79.632,28.512,79.632,28.656,79.488,28.656,79.488,28.8,79.344,28.8,79.344,28.944,79.2,28.944,79.2,29.088,79.056,29.088,79.056,29.232,78.912,29.232,78.912,29.376,78.624,29.376,78.624,29.52,78.48,29.52,78.48,29.664,78.192,29.664,78.192,29.808,77.76,29.808,77.76,29.952,77.184,29.952,77.184,30.096,83.52,30.096,83.52,29.952,82.944,29.952,82.944,29.808,82.512,29.808,82.512,29.664,82.224,29.664,82.224,29.52,81.936,29.52,81.936,29.376,81.792,29.376,81.792,29.232,81.648,29.232,81.648,29.088,81.36,29.088,81.36,28.8,81.216,28.8,81.216,28.656,81.072,28.656,81.072,28.512" stroke-width="0" fill="black" stroke="none" />
     <polygon points="86.832,28.512,86.832,28.656,86.688,28.656,86.688,28.8,86.544,28.8,86.544,28.944,86.4,28.944,86.4,29.088,86.256,29.088,86.256,29.232,86.112,29.232,86.112,29.376,85.824,29.376,85.824,29.52,85.68,29.52,85.68,29.664,85.392,29.664,85.392,29.808,84.96,29.808,84.96,29.952,84.384,29.952,84.384,30.096,90.72,30.096,90.72,29.952,90.144,29.952,90.144,29.808,89.712,29.808,89.712,29.664,89.424,29.664,89.424,29.52,89.136,29.52,89.136,29.376,88.992,29.376,88.992,29.232,88.848,29.232,88.848,29.088,88.56,29.088,88.56,28.8,88.416,28.8,88.416,28.656,88.272,28.656,88.272,28.512" stroke-width="0" fill="black" stroke="none" />
     <polygon points="94.032,28.512,94.032,28.656,93.888,28.656,93.888,28.8,93.744,28.8,93.744,28.944,93.6,28.944,93.6,29.088,93.456,29.088,93.456,29.232,93.312,29.232,93.312,29.376,93.024,29.376,93.024,29.52,92.88,29.52,92.88,29.664,92.592,29.664,92.592,29.808,92.16,29.808,92.16,29.952,91.584,29.952,91.584,30.096,96.768,30.096,96.768,29.664,96.624,29.664,96.624,29.52,96.336,29.52,96.336,29.376,96.192,29.376,96.192,29.232,96.048,29.232,96.048,29.088,95.76,29.088,95.76,28.8,95.616,28.8,95.616,28.656,95.472,28.656,95.472,28.512" stroke-width="0" fill="black" stroke="none" />
     <polygon points="101.232,28.512,101.232,28.656,101.088,28.656,101.088,28.8,100.944,28.8,100.944,28.944,100.8,28.944,100.8,29.088,100.656,29.088,100.656,29.232,100.512,29.232,100.512,29.376,100.224,29.376,100.224,29.52,100.08,29.52,100.08,29.664,99.936,29.664,99.936,34.128,99.792,34.128,99.792,34.416,99.648,34.416,99.648,34.704,99.504,34.704,99.504,34.848,99.36,34.848,99.36,34.992,99.072,34.992,99.072,35.136,98.784,35.136,98.784,35.28,54.864,35.28,54.864,35.568,54.72,35.568,54.72,35.856,54.576,35.856,54.576,36,54.432,36,54.432,36.144,54.288,36.144,54.288,36.288,54.144,36.288,54.144,36.432,53.856,36.432,53.856,36.576,53.712,36.576,53.712,36.72,53.424,36.72,53.424,36.864,53.136,36.864,53.136,37.008,52.56,37.008,52.56,37.152,103.968,37.152,103.968,29.664,103.824,29.664,103.824,29.52,103.536,29.52,103.536,29.376,103.392,29.376,103.392,29.232,103.248,29.232,103.248,29.088,102.96,29.088,102.96,28.8,102.816,28.8,102.816,28.656,102.672,28.656,102.672,28.512" stroke-width="0" fill="black" stroke="none" />
     <polygon points="0,30.096,0,30.24,96.768,30.24,96.768,30.096" stroke-width="0" fill="black" stroke="none" />
     <polygon points="0,30.096,0,30.24,96.768,30.24,96.768,30.096" stroke-width="0" fill="black" stroke="none" />
     <polygon points="0,30.096,0,30.24,96.768,30.24,96.768,30.096" stroke-width="0" fill="black" stroke="none" />
     <polygon points="0,30.096,0,30.24,96.768,30.24,96.768,30.096" stroke-width="0" fill="black" stroke="none" />
     <polygon points="0,30.096,0,30.24,96.768,30.24,96.768,30.096" stroke-width="0" fill="black" stroke="none" />
     <polygon points="0,30.096,0,30.24,96.768,30.24,96.768,30.096" stroke-width="0" fill="black" stroke="none" />
     <polygon points="0,30.24,0,32.976,1.44,32.976,1.44,32.544,1.584,32.544,1.584,32.256,1.728,32.256,1.728,31.968,1.872,31.968,1.872,31.68,2.016,31.68,2.016,31.536,2.16,31.536,2.16,31.392,2.304,31.392,2.304,31.248,2.448,31.248,2.448,31.104,2.592,31.104,2.592,30.96,2.88,30.96,2.88,30.816,3.024,30.816,3.024,30.672,3.312,30.672,3.312,30.528,3.744,30.528,3.744,30.384,4.608,30.384,4.608,30.24" stroke-width="0" fill="black" stroke="none" />
     <polygon points="4.752,30.24,4.752,30.384,5.616,30.384,5.616,30.528,6.048,30.528,6.048,30.672,6.336,30.672,6.336,30.816,6.624,30.816,6.624,30.96,6.768,30.96,6.768,31.104,6.912,31.104,6.912,31.248,7.2,31.248,7.2,31.536,7.344,31.536,7.344,31.68,7.488,31.68,7.488,31.824,7.632,31.824,7.632,32.112,7.776,32.112,7.776,32.4,7.92,32.4,7.92,32.832,8.064,32.832,8.064,34.56,7.92,34.56,7.92,35.136,7.776,35.136,7.776,35.28,7.632,35.28,7.632,35.568,7.488,35.568,7.488,35.856,7.344,35.856,7.344,36,7.2,36,7.2,36.144,7.056,36.144,7.056,36.288,6.912,36.288,6.912,36.432,6.624,36.432,6.624,36.576,6.48,36.576,6.48,36.72,6.192,36.72,6.192,36.864,5.904,36.864,5.904,37.008,5.328,37.008,5.328,37.152,22.464,37.152,22.464,37.008,22.032,37.008,22.032,36.864,21.6,36.864,21.6,36.72,21.456,36.72,21.456,36.576,21.168,36.576,21.168,36.432,21.024,36.432,21.024,36.288,20.736,36.288,20.736,36.144,20.592,36.144,20.592,35.856,20.448,35.856,20.448,35.712,20.304,35.712,20.304,35.568,20.16,35.568,20.16,35.28,20.016,35.28,20.016,34.848,19.872,34.848,19.872,34.416,19.728,34.416,19.728,32.976,19.872,32.976,19.872,32.544,20.016,32.544,20.016,32.256,20.16,32.256,20.16,31.968,20.304,31.968,20.304,31.68,20.448,31.68,20.448,31.536,20.592,31.536,20.592,31.392,20.736,31.392,20.736,31.248,20.88,31.248,20.88,31.104,21.024,31.104,21.024,30.96,21.312,30.96,21.312,30.816,21.456,30.816,21.456,30.672,21.744,30.672,21.744,30.528,22.176,30.528,22.176,30.384,23.04,30.384,23.04,30.24" stroke-width="0" fill="black" stroke="none" />
     <polygon points="23.184,30.24,23.184,30.384,24.048,30.384,24.048,30.528,24.48,30.528,24.48,30.672,24.768,30.672,24.768,30.816,25.056,30.816,25.056,30.96,25.2,30.96,25.2,31.104,25.344,31.104,25.344,31.248,25.488,31.248,25.488,31.392,25.632,31.392,25.632,31.536,25.776,31.536,25.776,31.68,25.92,31.68,25.92,31.824,26.064,31.824,26.064,32.112,26.208,32.112,26.208,32.4,26.352,32.4,26.352,32.832,26.496,32.832,26.496,34.56,26.352,34.56,26.352,35.136,26.208,35.136,26.208,35.28,26.064,35.28,26.064,35.568,25.92,35.568,25.92,35.856,25.776,35.856,25.776,36,25.632,36,25.632,37.152,32.832,37.152,32.832,37.008,32.4,37.008,32.4,36.864,31.968,36.864,31.968,36.72,31.824,36.72,31.824,36.576,31.536,36.576,31.536,36.432,31.392,36.432,31.392,36.288,31.248,36.288,31.248,36.144,31.104,36.144,31.104,36,30.96,36,30.96,35.856,30.816,35.856,30.816,35.712,30.672,35.712,30.672,35.424,30.528,35.424,30.528,35.28,30.384,35.28,30.384,34.848,30.24,34.848,30.24,34.416,30.096,34.416,30.096,32.976,30.24,32.976,30.24,32.544,30.384,32.544,30.384,32.256,30.528,32.256,30.528,31.968,30.672,31.968,30.672,31.68,30.816,31.68,30.816,31.536,30.96,31.536,30.96,31.392,31.104,31.392,31.104,31.248,31.248,31.248,31.248,31.104,31.392,31.104,31.392,30.96,31.68,30.96,31.68,30.816,31.824,30.816,31.824,30.672,32.112,30.672,32.112,30.528,32.544,30.528,32.544,30.384,33.408,30.384,33.408,30.24" stroke-width="0" fill="black" stroke="none" />
     <polygon points="33.552,30.24,33.552,30.384,34.416,30.384,34.416,30.528,34.848,30.528,34.848,30.672,35.136,30.672,35.136,30.816,35.424,30.816,35.424,30.96,35.568,30.96,35.568,31.104,35.712,31.104,35.712,31.248,36,31.248,36,31.536,36.144,31.536,36.144,31.68,36.288,31.68,36.288,31.824,36.432,31.824,36.432,32.112,36.576,32.112,36.576,32.4,36.72,32.4,36.72,32.832,36.864,32.832,36.864,34.56,36.72,34.56,36.72,35.136,36.576,35.136,36.576,35.28,36.432,35.28,36.432,35.568,36.288,35.568,36.288,35.856,36.144,35.856,36.144,36,36,36,36,36.144,35.856,36.144,35.856,36.288,35.712,36.288,35.712,36.432,35.424,36.432,35.424,36.576,35.28,36.576,35.28,36.72,34.992,36.72,34.992,36.864,34.704,36.864,34.704,37.008,34.128,37.008,34.128,37.152,51.264,37.152,51.264,37.008,50.832,37.008,50.832,36.864,50.4,36.864,50.4,36.72,50.256,36.72,50.256,36.576,49.968,36.576,49.968,36.432,49.824,36.432,49.824,36.288,49.536,36.288,49.536,36.144,49.392,36.144,49.392,35.856,49.248,35.856,49.248,35.712,49.104,35.712,49.104,35.568,48.96,35.568,48.96,35.28,48.816,35.28,48.816,34.848,48.672,34.848,48.672,34.416,48.528,34.416,48.528,32.976,48.672,32.976,48.672,32.544,48.816,32.544,48.816,32.256,48.96,32.256,48.96,31.968,49.104,31.968,49.104,31.68,49.248,31.68,49.248,31.536,49.392,31.536,49.392,31.392,49.536,31.392,49.536,31.248,49.68,31.248,49.68,31.104,49.824,31.104,49.824,30.96,50.112,30.96,50.112,30.816,50.256,30.816,50.256,30.672,50.544,30.672,50.544,30.528,50.976,30.528,50.976,30.384,51.84,30.384,51.84,30.24" stroke-width="0" fill="black" stroke="none" />
     <polygon points="51.984,30.24,51.984,30.384,52.848,30.384,52.848,30.528,53.28,30.528,53.28,30.672,53.568,30.672,53.568,30.816,53.856,30.816,53.856,30.96,54,30.96,54,31.104,54.144,31.104,54.144,31.248,54.288,31.248,54.288,31.392,54.432,31.392,54.432,31.536,54.576,31.536,54.576,31.68,54.72,31.68,54.72,31.824,54.864,31.824,54.864,32.112,96.768,32.112,96.768,30.24" stroke-width="0" fill="black" stroke="none" />
     <polygon points="0,34.416,0,37.152,4.032,37.152,4.032,37.008,3.6,37.008,3.6,36.864,3.168,36.864,3.168,36.72,3.024,36.72,3.024,36.576,2.736,36.576,2.736,36.432,2.592,36.432,2.592,36.288,2.448,36.288,2.448,36.144,2.304,36.144,2.304,36,2.16,36,2.16,35.856,2.016,35.856,2.016,35.712,1.872,35.712,1.872,35.424,1.728,35.424,1.728,35.28,1.584,35.28,1.584,34.848,1.44,34.848,1.44,34.416" stroke-width="0" fill="black" stroke="none" />
     <polygon points="0,37.152,0,37.296,23.904,37.296,23.904,37.152" stroke-width="0" fill="black" stroke="none" />
     <polygon points="0,37.152,0,37.296,23.904,37.296,23.904,37.152" stroke-width="0" fill="black" stroke="none" />
     <polygon points="25.632,37.152,25.632,37.296,103.968,37.296,103.968,37.152" stroke-width="0" fill="black" stroke="none" />
     <polygon points="25.632,37.152,25.632,37.296,103.968,37.296,103.968,37.152" stroke-width="0" fill="black" stroke="none" />
     <polygon points="25.632,37.152,25.632,37.296,103.968,37.296,103.968,37.152" stroke-width="0" fill="black" stroke="none" />
     <polygon points="0,37.296,0,37.44,12.672,37.44,12.672,37.584,13.248,37.584,13.248,37.728,13.536,37.728,13.536,37.872,13.824,37.872,13.824,38.016,13.968,38.016,13.968,38.16,14.112,38.16,14.112,38.304,14.4,38.304,14.4,38.448,14.544,38.448,14.544,38.736,14.688,38.736,14.688,38.88,14.832,38.88,14.832,39.024,14.976,39.024,14.976,39.312,15.12,39.312,15.12,39.6,15.264,39.6,15.264,40.176,15.408,40.176,15.408,41.76,15.264,41.76,15.264,42.192,15.12,42.192,15.12,42.48,14.976,42.48,14.976,42.768,14.832,42.768,14.832,43.056,14.688,43.056,14.688,43.2,14.544,43.2,14.544,43.344,14.4,43.344,14.4,43.488,14.256,43.488,14.256,43.632,14.112,43.632,14.112,43.776,13.824,43.776,13.824,43.92,13.68,43.92,13.68,44.064,13.392,44.064,13.392,44.208,12.96,44.208,12.96,44.352,12.384,44.352,12.384,44.496,25.92,44.496,25.92,44.352,25.344,44.352,25.344,44.208,24.912,44.208,24.912,44.064,24.624,44.064,24.624,43.92,24.336,43.92,24.336,43.776,24.192,43.776,24.192,43.632,24.048,43.632,24.048,43.488,23.76,43.488,23.76,43.2,23.616,43.2,23.616,43.056,23.472,43.056,23.472,42.912,23.328,42.912,23.328,42.624,23.184,42.624,23.184,42.336,23.04,42.336,23.04,42.048,22.896,42.048,22.896,41.328,22.752,41.328,22.752,40.464,22.896,40.464,22.896,39.888,23.04,39.888,23.04,39.456,23.184,39.456,23.184,39.168,23.328,39.168,23.328,39.024,23.472,39.024,23.472,38.736,23.616,38.736,23.616,38.592,23.76,38.592,23.76,38.448,23.904,38.448,23.904,37.296" stroke-width="0" fill="black" stroke="none" />
     <polygon points="25.632,37.296,25.632,37.44,48.672,37.44,48.672,37.584,49.248,37.584,49.248,37.728,49.536,37.728,49.536,37.872,49.824,37.872,49.824,38.016,49.968,38.016,49.968,38.16,50.112,38.16,50.112,38.304,50.4,38.304,50.4,38.448,50.544,38.448,50.544,38.736,50.688,38.736,50.688,38.88,50.832,38.88,50.832,39.024,50.976,39.024,50.976,39.312,103.968,39.312,103.968,37.296" stroke-width="0" fill="black" stroke="none" />
     <polygon points="0,37.44,0,44.496,11.52,44.496,11.52,44.352,10.944,44.352,10.944,44.208,10.512,44.208,10.512,44.064,10.224,44.064,10.224,43.92,9.936,43.92,9.936,43.776,9.792,43.776,9.792,43.632,9.648,43.632,9.648,43.488,9.36,43.488,9.36,43.2,9.216,43.2,9.216,43.056,9.072,43.056,9.072,42.912,8.928,42.912,8.928,42.624,8.784,42.624,8.784,42.336,8.64,42.336,8.64,42.048,8.496,42.048,8.496,41.328,8.352,41.328,8.352,40.464,8.496,40.464,8.496,39.888,8.64,39.888,8.64,39.456,8.784,39.456,8.784,39.168,8.928,39.168,8.928,39.024,9.072,39.024,9.072,38.736,9.216,38.736,9.216,38.592,9.36,38.592,9.36,38.448,9.504,38.448,9.504,38.304,9.648,38.304,9.648,38.16,9.792,38.16,9.792,38.016,10.08,38.016,10.08,37.872,10.368,37.872,10.368,37.728,10.656,37.728,10.656,37.584,11.088,37.584,11.088,37.44" stroke-width="0" fill="black" stroke="none" />
     <polygon points="27.072,37.44,27.072,37.584,27.648,37.584,27.648,37.728,27.936,37.728,27.936,37.872,28.224,37.872,28.224,38.016,28.368,38.016,28.368,38.16,28.512,38.16,28.512,38.304,28.8,38.304,28.8,38.448,28.944,38.448,28.944,38.736,29.088,38.736,29.088,38.88,29.232,38.88,29.232,39.024,29.376,39.024,29.376,39.312,29.52,39.312,29.52,39.6,29.664,39.6,29.664,40.176,29.808,40.176,29.808,41.76,29.664,41.76,29.664,42.192,29.52,42.192,29.52,43.92,29.664,43.92,29.664,44.208,29.808,44.208,29.808,44.496,47.52,44.496,47.52,44.352,46.944,44.352,46.944,44.208,46.512,44.208,46.512,44.064,46.224,44.064,46.224,43.92,45.936,43.92,45.936,43.776,45.792,43.776,45.792,43.632,45.648,43.632,45.648,43.488,45.36,43.488,45.36,43.2,45.216,43.2,45.216,43.056,45.072,43.056,45.072,42.912,44.928,42.912,44.928,42.624,44.784,42.624,44.784,42.336,44.64,42.336,44.64,42.048,44.496,42.048,44.496,41.328,44.352,41.328,44.352,40.464,44.496,40.464,44.496,39.888,44.64,39.888,44.64,39.456,44.784,39.456,44.784,39.168,44.928,39.168,44.928,39.024,45.072,39.024,45.072,38.736,45.216,38.736,45.216,38.592,45.36,38.592,45.36,38.448,45.504,38.448,45.504,38.304,45.648,38.304,45.648,38.16,45.792,38.16,45.792,38.016,46.08,38.016,46.08,37.872,46.368,37.872,46.368,37.728,46.656,37.728,46.656,37.584,47.088,37.584,47.088,37.44" stroke-width="0" fill="black" stroke="none" />
     <polygon points="0,44.496,0,44.64,26.352,44.64,26.352,44.496" stroke-width="0" fill="black" stroke="none" />
     <polygon points="0,44.496,0,44.64,26.352,44.64,26.352,44.496" stroke-width="0" fill="black" stroke="none" />
     <polygon points="29.952,44.496,29.952,44.64,114.192,44.64,114.192,44.496" stroke-width="0" fill="black" stroke="none" />
     <polygon points="29.952,44.496,29.952,44.64,114.192,44.64,114.192,44.496" stroke-width="0" fill="black" stroke="none" />
     <polygon points="0,44.64,0,65.952,30.096,65.952,30.096,59.04,31.104,59.04,31.104,57.6,30.96,57.6,30.96,57.456,30.816,57.456,30.816,57.312,30.672,57.312,30.672,57.024,30.528,57.024,30.528,56.88,30.384,56.88,30.384,56.448,30.24,56.448,30.24,56.016,30.096,56.016,30.096,54.576,30.24,54.576,30.24,54.144,30.384,54.144,30.384,52.416,30.24,52.416,30.24,52.128,30.096,52.128,30.096,51.84,29.952,51.84,29.952,51.552,29.808,51.552,29.808,51.264,29.664,51.264,29.664,50.976,29.52,50.976,29.52,50.688,29.376,50.688,29.376,50.4,29.232,50.4,29.232,50.112,29.088,50.112,29.088,49.824,28.944,49.824,28.944,49.536,28.8,49.536,28.8,49.248,28.656,49.248,28.656,48.96,28.512,48.96,28.512,48.672,28.368,48.672,28.368,48.384,28.224,48.384,28.224,48.096,28.08,48.096,28.08,47.808,27.936,47.808,27.936,47.52,27.792,47.52,27.792,47.232,27.648,47.232,27.648,46.944,27.504,46.944,27.504,46.656,27.36,46.656,27.36,46.368,27.216,46.368,27.216,46.08,27.072,46.08,27.072,45.792,26.928,45.792,26.928,45.504,26.784,45.504,26.784,45.216,26.64,45.216,26.64,44.928,26.496,44.928,26.496,44.64" stroke-width="0" fill="black" stroke="none" />
     <polygon points="29.952,44.64,29.952,44.784,30.096,44.784,30.096,45.072,30.24,45.072,30.24,45.36,30.384,45.36,30.384,45.648,30.528,45.648,30.528,45.936,30.672,45.936,30.672,46.224,30.816,46.224,30.816,46.512,30.96,46.512,30.96,46.8,31.104,46.8,31.104,47.088,31.248,47.088,31.248,47.376,31.392,47.376,31.392,47.664,31.536,47.664,31.536,47.952,31.68,47.952,31.68,48.24,31.824,48.24,31.824,48.528,31.968,48.528,31.968,48.816,32.112,48.816,32.112,49.104,32.256,49.104,32.256,49.392,32.4,49.392,32.4,49.68,32.544,49.68,32.544,49.968,32.688,49.968,32.688,50.256,32.832,50.256,32.832,50.544,32.976,50.544,32.976,50.832,33.12,50.832,33.12,51.12,33.264,51.12,33.264,51.408,33.408,51.408,33.408,51.696,33.552,51.696,33.552,51.84,47.952,51.84,47.952,51.984,48.816,51.984,48.816,52.128,49.248,52.128,49.248,52.272,49.536,52.272,49.536,52.416,49.824,52.416,49.824,52.56,49.968,52.56,49.968,52.704,50.112,52.704,50.112,52.848,50.4,52.848,50.4,53.136,50.544,53.136,50.544,53.28,50.688,53.28,50.688,53.424,50.832,53.424,50.832,53.712,105.84,53.712,105.84,53.856,106.272,53.856,106.272,54,106.56,54,106.56,54.144,106.704,54.144,106.704,54.288,106.848,54.288,106.848,54.576,106.992,54.576,106.992,54.864,107.136,54.864,107.136,66.672,107.28,66.672,107.28,66.816,107.568,66.816,107.568,66.96,107.712,66.96,107.712,67.104,107.856,67.104,107.856,67.248,108,67.248,108,67.392,108.144,67.392,108.144,67.536,108.288,67.536,108.288,67.68,108.432,67.68,108.432,67.968,108.576,67.968,108.576,68.256,108.72,68.256,108.72,68.544,108.864,68.544,108.864,68.976,109.008,68.976,109.008,70.56,108.864,70.56,108.864,70.992,108.72,70.992,108.72,71.28,108.576,71.28,108.576,71.568,108.432,71.568,108.432,71.856,108.288,71.856,108.288,72,108.144,72,108.144,72.144,108,72.144,108,72.288,107.856,72.288,107.856,72.432,107.712,72.432,107.712,72.576,107.568,72.576,107.568,74.016,114.192,74.016,114.192,44.64" stroke-width="0" fill="black" stroke="none" />
     <polygon points="33.552,51.84,33.552,51.984,34.416,51.984,34.416,52.128,34.848,52.128,34.848,52.272,35.136,52.272,35.136,52.416,35.424,52.416,35.424,52.56,35.568,52.56,35.568,52.704,35.712,52.704,35.712,52.848,36,52.848,36,53.136,36.144,53.136,36.144,53.28,36.288,53.28,36.288,53.424,36.432,53.424,36.432,53.712,44.928,53.712,44.928,53.568,45.072,53.568,45.072,53.28,45.216,53.28,45.216,53.136,45.36,53.136,45.36,52.992,45.504,52.992,45.504,52.848,45.648,52.848,45.648,52.704,45.792,52.704,45.792,52.56,46.08,52.56,46.08,52.416,46.224,52.416,46.224,52.272,46.512,52.272,46.512,52.128,46.944,52.128,46.944,51.984,47.808,51.984,47.808,51.84" stroke-width="0" fill="black" stroke="none" />
     <polygon points="36.432,56.88,36.432,57.168,36.288,57.168,36.288,57.456,36.144,57.456,36.144,57.6,36,57.6,36,59.04,36.864,59.04,36.864,65.952,44.496,65.952,44.496,59.04,45.504,59.04,45.504,57.6,45.36,57.6,45.36,57.456,45.216,57.456,45.216,57.312,45.072,57.312,45.072,57.024,44.928,57.024,44.928,56.88" stroke-width="0" fill="black" stroke="none" />
     <polygon points="50.832,56.88,50.832,57.168,50.688,57.168,50.688,57.456,50.544,57.456,50.544,57.6,50.4,57.6,50.4,59.04,51.264,59.04,51.264,65.952,103.968,65.952,103.968,56.88" stroke-width="0" fill="black" stroke="none" />
     <polygon points="0,65.952,0,66.096,103.968,66.096,103.968,65.952" stroke-width="0" fill="black" stroke="none" />
     <polygon points="0,65.952,0,66.096,103.968,66.096,103.968,65.952" stroke-width="0" fill="black" stroke="none" />
     <polygon points="0,65.952,0,66.096,103.968,66.096,103.968,65.952" stroke-width="0" fill="black" stroke="none" />
     <polygon points="0,66.096,0,66.24,98.928,66.24,98.928,66.384,99.504,66.384,99.504,66.528,99.792,66.528,99.792,66.672,100.08,66.672,100.08,66.816,100.368,66.816,100.368,66.96,100.512,66.96,100.512,67.104,100.656,67.104,100.656,67.248,100.8,67.248,100.8,67.392,100.944,67.392,100.944,67.536,101.088,67.536,101.088,67.68,101.232,67.68,101.232,67.824,102.672,67.824,102.672,67.68,102.816,67.68,102.816,67.392,102.96,67.392,102.96,67.248,103.104,67.248,103.104,67.104,103.248,67.104,103.248,66.96,103.536,66.96,103.536,66.816,103.68,66.816,103.68,66.672,103.968,66.672,103.968,66.096" stroke-width="0" fill="black" stroke="none" />
     <polygon points="0,66.24,0,74.016,60.336,74.016,60.336,72.576,60.192,72.576,60.192,72.432,59.904,72.432,59.904,72.288,59.76,72.288,59.76,72.144,59.616,72.144,59.616,71.856,59.472,71.856,59.472,71.712,59.328,71.712,59.328,71.424,59.184,71.424,59.184,71.28,59.04,71.28,59.04,70.848,58.896,70.848,58.896,70.272,58.752,70.272,58.752,69.264,58.896,69.264,58.896,68.688,59.04,68.688,59.04,68.256,59.184,68.256,59.184,68.112,59.328,68.112,59.328,67.824,59.472,67.824,59.472,67.68,59.616,67.68,59.616,67.392,59.76,67.392,59.76,67.248,59.904,67.248,59.904,67.104,60.048,67.104,60.048,66.96,60.336,66.96,60.336,66.816,60.48,66.816,60.48,66.672,60.768,66.672,60.768,66.528,61.2,66.528,61.2,66.384,61.632,66.384,61.632,66.24" stroke-width="0" fill="black" stroke="none" />
     <polygon points="62.928,66.24,62.928,66.384,63.504,66.384,63.504,66.528,63.792,66.528,63.792,66.672,64.08,66.672,64.08,66.816,64.368,66.816,64.368,66.96,64.512,66.96,64.512,67.104,64.656,67.104,64.656,67.248,64.8,67.248,64.8,67.392,64.944,67.392,64.944,67.536,65.088,67.536,65.088,67.68,65.232,67.68,65.232,67.824,66.672,67.824,66.672,67.68,66.816,67.68,66.816,67.392,66.96,67.392,66.96,67.248,67.104,67.248,67.104,67.104,67.248,67.104,67.248,66.96,67.536,66.96,67.536,66.816,67.68,66.816,67.68,66.672,67.968,66.672,67.968,66.528,68.4,66.528,68.4,66.384,68.832,66.384,68.832,66.24" stroke-width="0" fill="black" stroke="none" />
     <polygon points="70.128,66.24,70.128,66.384,70.704,66.384,70.704,66.528,70.992,66.528,70.992,66.672,71.28,66.672,71.28,66.816,71.568,66.816,71.568,66.96,71.712,66.96,71.712,67.104,71.856,67.104,71.856,67.248,72,67.248,72,67.392,72.144,67.392,72.144,67.536,72.288,67.536,72.288,67.68,72.432,67.68,72.432,67.824,73.872,67.824,73.872,67.68,74.016,67.68,74.016,67.392,74.16,67.392,74.16,67.248,74.304,67.248,74.304,67.104,74.448,67.104,74.448,66.96,74.736,66.96,74.736,66.816,74.88,66.816,74.88,66.672,75.168,66.672,75.168,66.528,75.6,66.528,75.6,66.384,76.032,66.384,76.032,66.24" stroke-width="0" fill="black" stroke="none" />
     <polygon points="77.328,66.24,77.328,66.384,77.904,66.384,77.904,66.528,78.192,66.528,78.192,66.672,78.48,66.672,78.48,66.816,78.768,66.816,78.768,66.96,78.912,66.96,78.912,67.104,79.056,67.104,79.056,67.248,79.2,67.248,79.2,67.392,79.344,67.392,79.344,67.536,79.488,67.536,79.488,67.68,79.632,67.68,79.632,67.824,81.072,67.824,81.072,67.68,81.216,67.68,81.216,67.392,81.36,67.392,81.36,67.248,81.504,67.248,81.504,67.104,81.648,67.104,81.648,66.96,81.936,66.96,81.936,66.816,82.08,66.816,82.08,66.672,82.368,66.672,82.368,66.528,82.8,66.528,82.8,66.384,83.232,66.384,83.232,66.24" stroke-width="0" fill="black" stroke="none" />
     <polygon points="84.528,66.24,84.528,66.384,85.104,66.384,85.104,66.528,85.392,66.528,85.392,66.672,85.68,66.672,85.68,66.816,85.968,66.816,85.968,66.96,86.112,66.96,86.112,67.104,86.256,67.104,86.256,67.248,86.4,67.248,86.4,67.392,86.544,67.392,86.544,67.536,86.688,67.536,86.688,67.68,86.832,67.68,86.832,67.824,88.272,67.824,88.272,67.68,88.416,67.68,88.416,67.392,88.56,67.392,88.56,67.248,88.704,67.248,88.704,67.104,88.848,67.104,88.848,66.96,89.136,66.96,89.136,66.816,89.28,66.816,89.28,66.672,89.568,66.672,89.568,66.528,90,66.528,90,66.384,90.432,66.384,90.432,66.24" stroke-width="0" fill="black" stroke="none" />
     <polygon points="91.728,66.24,91.728,66.384,92.304,66.384,92.304,66.528,92.592,66.528,92.592,66.672,92.88,66.672,92.88,66.816,93.168,66.816,93.168,66.96,93.312,66.96,93.312,67.104,93.456,67.104,93.456,67.248,93.6,67.248,93.6,67.392,93.744,67.392,93.744,67.536,93.888,67.536,93.888,67.68,94.032,67.68,94.032,67.824,95.472,67.824,95.472,67.68,95.616,67.68,95.616,67.392,95.76,67.392,95.76,67.248,95.904,67.248,95.904,67.104,96.048,67.104,96.048,66.96,96.336,66.96,96.336,66.816,96.48,66.816,96.48,66.672,96.768,66.672,96.768,66.528,97.2,66.528,97.2,66.384,97.632,66.384,97.632,66.24" stroke-width="0" fill="black" stroke="none" />
     <g id="connector0pad" >
      <circle cx="5.93486" stroke-width="0" fill="black" stroke="none" cy="5.59959"  r="2.7"/>
     </g>
    </g>
   </g>
  </g>
  <g partID="854136120">
   <g transform="translate(99.432,73.728)">
    <g id="groundplane" >
     <polygon points="0,0,3.24,0,3.24,2.448,0,2.448" stroke-width="0" fill="black" stroke="none" />
    </g>
   </g>
  </g>
  <g partID="854136130">
   <g transform="translate(49.104,66.384)">
    <g id="groundplane" >
     <polygon points="0,0,3.096,0,3.096,2.448,0,2.448" stroke-width="0" fill="black" stroke="none" />
    </g>
   </g>
  </g>
  <g partID="854136140">
   <g transform="translate(34.704,66.384)">
    <g id="groundplane" >
     <polygon points="0,0,3.096,0,3.096,2.448,0,2.448" stroke-width="0" fill="black" stroke="none" />
    </g>
   </g>
  </g>
  <g partID="854136150">
   <g transform="translate(10.944,41.976)">
    <g id="groundplane" >
     <polygon points="0,0,2.304,0,2.304,3.24,0,3.24" stroke-width="0" fill="black" stroke="none" />
    </g>
   </g>
  </g>
  <g partID="854136160">
   <g transform="translate(5.904,32.832)">
    <g id="groundplane" >
     <polygon points="0,0,3.096,0,3.096,2.304,0,2.304" stroke-width="0" fill="black" stroke="none" />
    </g>
   </g>
  </g>
  <g partID="854136170">
   <g transform="translate(5.904,37.584)">
    <g id="groundplane" >
     <polygon points="0,0,3.096,0,3.096,2.448,0,2.448" stroke-width="0" fill="black" stroke="none" />
    </g>
   </g>
  </g>
  <g partID="854136180">
   <g transform="translate(3.888,34.848)">
    <g id="groundplane" >
     <polygon points="0,0,2.304,0,2.304,3.096,0,3.096" stroke-width="0" fill="black" stroke="none" />
    </g>
   </g>
  </g>
  <g partID="854136190">
   <g transform="translate(37.44,22.176)">
    <g id="groundplane" >
     <polygon points="0,0,2.304,0,2.304,3.096,0,3.096" stroke-width="0" fill="black" stroke="none" />
    </g>
   </g>
  </g>
  <g partID="854136200">
   <g transform="translate(53.136,24.912)">
    <g id="groundplane" >
     <polygon points="0,0,3.096,0,3.096,2.304,0,2.304" stroke-width="0" fill="black" stroke="none" />
    </g>
   </g>
  </g>
  <g partID="854136210">
   <g transform="translate(51.12,22.176)">
    <g id="groundplane" >
     <polygon points="0,0,2.304,0,2.304,3.096,0,3.096" stroke-width="0" fill="black" stroke="none" />
    </g>
   </g>
  </g>
  <g partID="854102750">
   <g transform="translate(117.724,25.7324)">
    <g transform="matrix(0,1,-1,0,0,0)">
     <g id="copper0" >
      <circle cx="3.67654" stroke-width="1.44" fill="none" id="connector0pin" stroke="black" cy="9.332" gorn="0.1.0.1"  r="2.088"/>
      <circle cx="3.67654" stroke-width="1.44" fill="none" id="connector1pin" stroke="black" cy="16.532" gorn="0.1.0.3"  r="2.088"/>
      <circle cx="3.67654" stroke-width="1.44" fill="none" id="connector2pin" stroke="black" cy="23.732" gorn="0.1.0.5"  r="2.088"/>
      <circle cx="3.67654" stroke-width="1.44" fill="none" id="connector3pin" stroke="black" cy="30.932" gorn="0.1.0.7"  r="2.088"/>
      <circle cx="3.67654" stroke-width="1.44" fill="none" id="connector4pin" stroke="black" cy="38.132" gorn="0.1.0.9"  r="2.088"/>
      <circle cx="3.67654" stroke-width="1.44" fill="none" id="connector5pin" stroke="black" cy="45.332" gorn="0.1.0.11"  r="2.088"/>
      <circle cx="3.67654" stroke-width="1.44" fill="none" id="connector6pin" stroke="black" cy="52.532" gorn="0.1.0.13"  r="2.088"/>
      <circle cx="46.9125" stroke-width="1.44" fill="none" id="connector7pin" stroke="black" cy="52.532" gorn="0.1.0.14"  r="2.088"/>
      <circle cx="46.9125" stroke-width="1.44" fill="none" id="connector8pin" stroke="black" cy="45.332" gorn="0.1.0.12"  r="2.088"/>
      <circle cx="46.9125" stroke-width="1.44" fill="none" id="connector9pin" stroke="black" cy="38.132" gorn="0.1.0.10"  r="2.088"/>
      <circle cx="46.9125" stroke-width="1.44" fill="none" id="connector10pin" stroke="black" cy="30.932" gorn="0.1.0.8"  r="2.088"/>
      <circle cx="46.9125" stroke-width="1.44" fill="none" id="connector11pin" stroke="black" cy="23.732" gorn="0.1.0.6"  r="2.088"/>
      <circle cx="46.9125" stroke-width="1.44" fill="none" id="connector12pin" stroke="black" cy="16.532" gorn="0.1.0.4"  r="2.088"/>
      <circle cx="46.9125" stroke-width="1.44" fill="none" id="connector13pin" stroke="black" cy="9.332" gorn="0.1.0.2"  r="2.088"/>
     </g>
    </g>
   </g>
  </g>
  <g partID="854121960">
   <g transform="translate(28.8321,69.3689)">
    <g transform="matrix(0,-1,1,0,0,0)">
     <g id="copper0" >
      <rect stroke-width="1.44" fill="none" width="3.96" height="3.96" y="5.58" id="rect11" stroke="black" x="1.98" />
      <circle cx="3.96" stroke-width="1.44" fill="none" id="connector0pin" stroke="black" cy="7.56"  r="1.98"/>
      <circle cx="11.16" stroke-width="1.44" fill="none" id="connector1pin" stroke="black" cy="7.56"  r="1.98"/>
     </g>
    </g>
   </g>
  </g>
  <g partID="854118180">
   <g transform="translate(43.2321,69.3689)">
    <g transform="matrix(0,-1,1,0,0,0)">
     <g id="copper0" >
      <rect stroke-width="1.44" fill="none" width="3.96" height="3.96" y="5.58" id="rect11" stroke="black" x="1.98" />
      <circle cx="3.96" stroke-width="1.44" fill="none" id="connector0pin" stroke="black" cy="7.56"  r="1.98"/>
      <circle cx="11.16" stroke-width="1.44" fill="none" id="connector1pin" stroke="black" cy="7.56"  r="1.98"/>
     </g>
    </g>
   </g>
  </g>
  <g partID="854121370">
   <g transform="translate(33.9714,21.0065)">
    <g id="copper0" >
     <circle cx="20.8462" stroke-width="1.44" fill="none" id="connector0pad" stroke="black" cy="15.6024"  r="1.98"/>
     <circle cx="2.42064" stroke-width="1.44" fill="none" id="connector1pad" stroke="black" cy="15.6024"  r="1.98"/>
     <circle cx="20.8462" stroke-width="1.44" fill="none" id="connector2pad" stroke="black" cy="2.84616"  r="1.98"/>
     <circle cx="2.42064" stroke-width="1.44" fill="none" id="connector3pad" stroke="black" cy="2.84616"  r="1.98"/>
    </g>
   </g>
  </g>
  <g partID="854121540">
   <g transform="translate(5.17144,21.0065)">
    <g id="copper0" >
     <circle cx="20.8462" stroke-width="1.44" fill="none" id="connector0pad" stroke="black" cy="15.6024"  r="1.98"/>
     <circle cx="2.42064" stroke-width="1.44" fill="none" id="connector1pad" stroke="black" cy="15.6024"  r="1.98"/>
     <circle cx="20.8462" stroke-width="1.44" fill="none" id="connector2pad" stroke="black" cy="2.84616"  r="1.98"/>
     <circle cx="2.42064" stroke-width="1.44" fill="none" id="connector3pad" stroke="black" cy="2.84616"  r="1.98"/>
    </g>
   </g>
  </g>
  <g partID="854131370">
   <g transform="translate(9.75208,38.7689)">
    <g id="copper0" >
     <circle cx="5.04" stroke-width="1.44" fill="none" id="connector0pin" stroke="black" cy="5.04"  r="2.088"/>
    </g>
   </g>
  </g>
  <g partID="854131200">
   <g transform="translate(24.1521,38.7689)">
    <g id="copper0" >
     <circle cx="5.04" stroke-width="1.44" fill="none" id="connector0pin" stroke="black" cy="5.04"  r="2.088"/>
    </g>
   </g>
  </g>
  <g partID="854131100">
   <g transform="translate(45.7521,38.7689)">
    <g id="copper0" >
     <circle cx="5.04" stroke-width="1.44" fill="none" id="connector0pin" stroke="black" cy="5.04"  r="2.088"/>
    </g>
   </g>
  </g>
  <g partID="854134710">
   <line y1="43.7772" stroke-linecap="round" stroke-width="1.728" y2="42.3133" stroke="black" x2="13.2226" x1="14.7588"/>
  </g>
  <g partID="854134370">
   <line y1="37.7153" stroke-linecap="round" stroke-width="1.728" y2="43.7772" stroke="black" x2="14.7588" x1="24.2799"/>
  </g>
  <g partID="854130180">
   <line y1="58.2184" stroke-linecap="round" stroke-width="1.728" y2="70.4769" stroke="black" x2="108.401" x1="108.451"/>
  </g>
  <g partID="854126200">
   <line y1="58.2184" stroke-linecap="round" stroke-width="1.728" y2="58.2184" stroke="black" x2="108.451" x1="57.9064"/>
  </g>
  <g partID="854121560">
   <line y1="58.2117" stroke-linecap="round" stroke-width="1.728" y2="58.2184" stroke="black" x2="57.9064" x1="52.8521"/>
  </g>
  <g partID="854122170">
   <line y1="58.2089" stroke-linecap="round" stroke-width="1.728" y2="58.2089" stroke="black" x2="48.7321" x1="38.4521"/>
  </g>
  <g partID="854132190">
   <line y1="43.7772" stroke-linecap="round" stroke-width="1.728" y2="31.5769" stroke="black" x2="108.401" x1="108.451"/>
  </g>
  <g partID="854132120">
   <line y1="43.8077" stroke-linecap="round" stroke-width="1.728" y2="43.7772" stroke="black" x2="108.451" x1="52.9601"/>
  </g>
  <g partID="854122850">
   <line y1="27.2409" stroke-linecap="round" stroke-width="1.728" y2="15.0708" stroke="black" x2="94.0096" x1="93.9947"/>
  </g>
  <g partID="854125210">
   <line y1="15.0708" stroke-linecap="round" stroke-width="1.728" y2="15.0708" stroke="black" x2="29.2" x1="94.0096"/>
  </g>
  <g partID="854125140">
   <line y1="15.0708" stroke-linecap="round" stroke-width="1.728" y2="21.9159" stroke="black" x2="26.7194" x1="29.2"/>
  </g>
  <g partID="854133940">
   <line y1="65.4089" stroke-linecap="round" stroke-width="1.728" y2="65.4089" stroke="black" x2="48.7321" x1="38.4521"/>
  </g>
  <g partID="854132740">
   <line y1="36.5566" stroke-linecap="round" stroke-width="1.728" y2="31.5769" stroke="black" x2="101.204" x1="101.23"/>
  </g>
  <g partID="854132590">
   <line y1="36.6066" stroke-linecap="round" stroke-width="1.728" y2="36.5566" stroke="black" x2="101.23" x1="56.8776"/>
  </g>
  <g partID="854133870">
   <line y1="65.4391" stroke-linecap="round" stroke-width="1.728" y2="70.4769" stroke="black" x2="101.204" x1="101.23"/>
  </g>
  <g partID="854133800">
   <line y1="65.4101" stroke-linecap="round" stroke-width="1.728" y2="65.4391" stroke="black" x2="101.23" x1="52.8521"/>
  </g>
  <g partID="854134220">
   <line y1="65.4391" stroke-linecap="round" stroke-width="1.728" y2="65.4118" stroke="black" x2="34.3321" x1="14.7588"/>
  </g>
  <g partID="854134070">
   <line y1="45.9769" stroke-linecap="round" stroke-width="1.728" y2="65.4391" stroke="black" x2="14.7588" x1="14.7887"/>
  </g>
  <g partID="854132810">
   <line y1="25.4508" stroke-linecap="round" stroke-width="1.728" y2="35.0107" stroke="black" x2="27.3174" x1="35.0923"/>
  </g>
  <g partID="854130620">
   <line y1="36.6089" stroke-linecap="round" stroke-width="1.728" y2="36.6089" stroke="black" x2="23.9576" x1="9.65208"/>
  </g>
  <g partID="854131220">
   <line y1="56.3664" stroke-linecap="round" stroke-width="1.728" y2="45.748" stroke="black" x2="30.1616" x1="35.4708"/>
  </g>
 </g>
</svg>
